# xmcd
#
# Track frame offsets:
#	150
#	14886
#	25090
#	34908
#	46811
#	61458
#	74391
#	85279
#	97669
#	107477
#	119511
#	130385
#	139933
#	149678
#	163598
#	173949
#	183128
#	196974
#	208210
#	221321
#	232354
#	245015
#	257296
#	271379
#	285397
#
# Disc length: 3947 seconds
#
# Revision: 0
# Processed by: cddbd v1.5.2PL0 Copyright (c) Steve Scherf et al.
# Submitted via: EasyCDDAExtractor 16.0.1.1
#
DISCID=7a0f6919
DTITLE=Don Gibson - The Singer-The Songwriter 1966-1969_cd2
DYEAR=1900
DGENRE=Country and Western
TTITLE0=Don Gibson - You've Still Got a Place in My Heart
TTITLE1=Don Gibson - Everlovin' Never Changing Mind
TTITLE2=Don Gibson - Maiden's Prayer
TTITLE3=Don Gibson - A Thing Called Sadness
TTITLE4=Don Gibson - What Now My Love
TTITLE5=Don Gibson - Half a Man
TTITLE6=Don Gibson - Thoughts
TTITLE7=Don Gibson - I Walk Alone
TTITLE8=Don Gibson - I'm So Lonesome I Could Cry
TTITLE9=Don Gibson - Someday You'll Call My Name
TTITLE10=Don Gibson - She's Looking Good
TTITLE11=Don Gibson - Times Were Good
TTITLE12=Don Gibson - Don't Rob Another Man's Castle
TTITLE13=Don Gibson - Someday (You'll Want Me to Want You)
TTITLE14=Don Gibson - If My Heart Had Windows
TTITLE15=Don Gibson - Ever Changing Mind
TTITLE16=Don Gibson - You Can't Pick a Rose in December
TTITLE17=Don Gibson and Dottie West - Til I Can't Take It Anymore (w Dottie West
TTITLE17=)
TTITLE18=Don Gibson and Dottie West - Let's Wait a Little Longer (w Dottie West)
TTITLE19=Don Gibson and Dottie West - Lovin' Season (w Dottie West)
TTITLE20=Don Gibson and Dottie West - How's the World Treating You (w Dottie Wes
TTITLE20=t)
TTITLE21=Don Gibson and Dottie West - Rings of Gold (w Dottie West)
TTITLE22=Don Gibson and Dottie West - Sweet Memories (w Dottie West)
TTITLE23=Don Gibson and Dottie West - I Love You Because (w Dottie West)
TTITLE24=Don Gibson and Dottie West - When I Stop Dreaming
EXTD=
EXTT0=
EXTT1=
EXTT2=
EXTT3=
EXTT4=
EXTT5=
EXTT6=
EXTT7=
EXTT8=
EXTT9=
EXTT10=
EXTT11=
EXTT12=
EXTT13=
EXTT14=
EXTT15=
EXTT16=
EXTT17=
EXTT18=
EXTT19=
EXTT20=
EXTT21=
EXTT22=
EXTT23=
EXTT24=
PLAYORDER=
